:SAMPLES-PER-SECOND 30
:FULLY-SPECIFIED
:DEGREES
62
root  39.667 38.2162 31.0047 26.3489 -84.0726 -31.2923
RightUpLeg  -21.7716 -16.0221 9.65595
RightLeg  20.0128 -4.05103 -1.55927
RightFoot  3.84822 1.44271 -10.5642
RightToes  5.82063e-011 0 -3.6325e-017
Spine  4.65201 -3.11783 6.46136
Spine1  8.01601 -4.31759 5.17093
HEad  -12.2184 0.455922 -0.975786
LeftShoulder1  8.02468 -11.2543 -47.4447
LeftArm  -9.47563 8.68973 -27.244
LeftForeArm  23.7406 -26.597 -4.43652
LeftHand  -0.244104 0.0205437 5.32207
RightShoulder  5.69072 8.7479 40.293
RightArm  -9.94652 -19.9167 27.6341
RightForeArm  10.034 5.69175 5.57489
RightHand  -0.502244 -0.642871 -12.2632
LeftUpLeg  17.2042 11.2824 7.66165
LeftLeg  32.0396 -0.655926 -0.0808473
LeftFoot  -6.0504 0.572497 -12.0613
LeftToes  1.2005e-010 6.1915e-012 3.32694e-011
63
root  38.1801 38.2247 30.9575 34.7938 -83.5975 -39.617
RightUpLeg  -20.843 -16.3173 10.664
RightLeg  23.0246 -4.09273 -2.14051
RightFoot  0.0978587 1.07069 -10.6268
RightToes  5.82063e-011 0 -3.6325e-017
Spine  4.86375 -3.15379 8.00004
Spine1  7.53243 -4.07876 5.60195
HEad  -11.9543 0.0550106 -1.08807
LeftShoulder1  8.00521 -11.2175 -47.4481
LeftArm  -10.2817 11.0698 -28.0046
LeftForeArm  25.6322 -29.995 -5.10823
LeftHand  -0.244104 0.0205437 5.32207
RightShoulder  5.67302 8.72391 40.2421
RightArm  -11.3517 -17.9553 29.1165
RightForeArm  9.39411 7.17557 5.50674
RightHand  -0.574326 -0.0812362 -12.5945
LeftUpLeg  10.9505 9.43468 8.61564
LeftLeg  43.2484 0.16427 0.558444
LeftFoot  5.62958 1.55096 -10.7089
LeftToes  1.2005e-010 6.1915e-012 3.32694e-011
64
root  36.8189 38.2635 30.9147 38.6245 -82.4715 -43.6118
RightUpLeg  -19.2632 -17.2764 11.3477
RightLeg  24.9073 -4.09863 -2.14015
RightFoot  -2.87819 0.751657 -10.3861
RightToes  5.82063e-011 0 -3.6325e-017
Spine  5.1652 -3.30009 9.94072
Spine1  7.82237 -3.81953 5.57577
HEad  -11.9943 -1.31907 -0.936022
LeftShoulder1  8.07067 -11.3671 -47.3545
LeftArm  -10.1747 12.3013 -28.6133
LeftForeArm  27.5865 -32.4864 -5.59276
LeftHand  -0.244104 0.0205437 5.32207
RightShoulder  5.65259 8.66747 40.2867
RightArm  -11.7815 -15.7159 30.7801
RightForeArm  7.96495 10.1945 5.66857
RightHand  -0.631887 0.437308 -12.6588
LeftUpLeg  4.25975 6.7951 9.31761
LeftLeg  53.2495 0.858757 1.72887
LeftFoot  12.0965 1.61581 -8.0855
LeftToes  1.2005e-010 6.1915e-012 3.32694e-011
65
root  35.4195 38.4924 30.8692 40.4698 -82.4854 -45.8709
RightUpLeg  -16.2686 -16.935 10.856
RightLeg  24.9796 -4.33376 -1.87739
RightFoot  -4.8907 0.542949 -10.183
RightToes  5.82063e-011 0 -3.6325e-017
Spine  5.32665 -2.87169 11.1712
Spine1  8.29912 -2.97526 4.65866
HEad  -12.3158 -2.98935 -0.191602
LeftShoulder1  8.12113 -11.5074 -47.2032
LeftArm  -9.56196 12.6691 -29.2979
LeftForeArm  29.3835 -33.5099 -5.74513
LeftHand  -0.244104 0.0205437 5.32207
RightShoulder  5.71526 8.75582 40.4534
RightArm  -8.77159 -13.4571 31.9878
RightForeArm  3.82039 14.7664 5.72527
RightHand  -0.627403 0.39927 -12.6517
LeftUpLeg  -1.3381 5.37783 9.35759
LeftLeg  60.016 1.82887 3.99411
LeftFoot  11.2265 1.10792 -5.85735
LeftToes  1.2005e-010 6.1915e-012 3.32694e-011
66
root  34.003 38.8131 30.8068 43.2446 -84.0238 -48.9665
RightUpLeg  -12.6096 -15.3635 9.37976
RightLeg  23.931 -4.652 -1.53893
RightFoot  -6.59851 0.365213 -9.85292
RightToes  5.82063e-011 0 -3.6325e-017
Spine  5.41857 -1.95087 11.1957
Spine1  8.50977 -1.70494 3.42318
HEad  -11.8234 -4.44569 0.209503
LeftShoulder1  8.11659 -11.5201 -47.1358
LeftArm  -9.15248 13.1543 -29.9779
LeftForeArm  30.2026 -33.3881 -5.66884
LeftHand  -0.244104 0.0205437 5.32207
RightShoulder  5.82875 8.99879 40.4564
RightArm  -3.45079 -11.063 32.8676
RightForeArm  -0.845348 19.8613 5.25157
RightHand  -0.606764 -0.0191171 -13.1525
LeftUpLeg  -6.03222 5.38454 8.536
LeftLeg  63.0461 2.71554 6.39703
LeftFoot  6.82441 0.681287 -4.53886
LeftToes  1.2005e-010 6.1915e-012 3.32694e-011
67
root  32.6214 39.0914 30.7509 49.605 -85.9605 -55.4097
RightUpLeg  -9.27362 -13.6115 7.62855
RightLeg  22.8066 -4.8197 -0.854448
RightFoot  -8.16922 0.206744 -9.42803
RightToes  5.82063e-011 0 -3.6325e-017
Spine  5.35304 -1.12054 10.9716
Spine1  8.58937 -0.54468 2.20842
HEad  -10.9014 -5.51171 0.23346
LeftShoulder1  8.09041 -11.4828 -47.0998
LeftArm  -9.13 14.1817 -30.4313
LeftForeArm  29.6611 -32.5478 -5.49261
LeftHand  -0.244104 0.0205437 5.32207
RightShoulder  5.88339 9.19907 40.1677
RightArm  -0.0361611 -8.36973 33.7475
RightForeArm  -0.99285 24.4327 5.19802
RightHand  -0.59741 -0.323273 -13.6966
LeftUpLeg  -10.3027 5.28034 7.32614
LeftLeg  62.7044 3.12706 7.18647
LeftFoot  3.10747 0.489198 -4.01131
LeftToes  1.2005e-010 6.1915e-012 3.32694e-011
68
root  31.2555 39.3493 30.7122 68.6406 -87.5321 -74.4002
RightUpLeg  -6.13763 -11.8056 5.93838
RightLeg  21.461 -4.89276 0.22397
RightFoot  -9.26004 0.103509 -9.11777
RightToes  5.82063e-011 0 -3.6325e-017
Spine  5.01308 -0.538674 11.1607
Spine1  8.72506 0.401789 0.649825
HEad  -9.8109 -6.30924 0.0629141
LeftShoulder1  8.05933 -11.4868 -46.9023
LeftArm  -9.04366 15.3842 -30.6591
LeftForeArm  28.4168 -30.9214 -5.17238
LeftHand  -0.244104 0.0205437 5.32207
RightShoulder  5.85584 9.23024 39.8553
RightArm  1.02093 -5.60074 34.5363
RightForeArm  2.82596 28.7029 6.069
RightHand  -0.560488 -0.530631 -13.3735
LeftUpLeg  -13.9864 4.40512 6.15443
LeftLeg  59.4057 3.19441 6.39162
LeftFoot  0.827621 0.362752 -3.44964
LeftToes  1.2005e-010 6.1915e-012 3.32694e-011
69
root  29.9104 39.5731 30.6802 115.124 -88.1361 -120.782
RightUpLeg  -3.04927 -10.1844 4.49911
RightLeg  19.789 -4.46501 1.29081
RightFoot  -10.1113 0.028858 -9.01513
RightToes  5.82063e-011 0 -3.6325e-017
Spine  4.56487 -0.00180493 11.5959
Spine1  8.90436 1.32981 -1.28479
HEad  -8.54637 -6.88644 -0.243723
LeftShoulder1  8.01959 -11.5076 -46.5995
LeftArm  -8.52293 16.4296 -30.7416
LeftForeArm  27.1867 -28.4275 -4.66344
LeftHand  -0.244104 0.0205437 5.32207
RightShoulder  5.83341 9.20325 39.7806
RightArm  2.08642 -3.08791 34.9289
RightForeArm  5.86599 33.2005 7.04095
RightHand  -0.487037 -0.907081 -12.5729
LeftUpLeg  -16.7644 3.57329 5.326
LeftLeg  53.4556 3.20255 5.1049
LeftFoot  -1.03059 0.308434 -3.36867
LeftToes  1.2005e-010 6.1915e-012 3.32694e-011
70
root  28.5852 39.6838 30.6604 160.95 -86.7876 -166.346
RightUpLeg  -0.382437 -9.21878 3.35723
RightLeg  18.4667 -3.16623 2.10394
RightFoot  -11.3565 -0.0776196 -8.99401
RightToes  5.82063e-011 0 -3.6325e-017
Spine  4.03602 0.540412 12.074
Spine1  9.10842 2.19871 -3.08345
HEad  -7.27354 -7.0966 -0.702678
LeftShoulder1  7.9875 -11.4858 -46.4776
LeftArm  -7.58117 17.4082 -30.6604
LeftForeArm  25.7756 -25.3791 -4.06383
LeftHand  -0.244104 0.0205437 5.32207
RightShoulder  5.86975 9.27993 39.7893
RightArm  3.23616 -0.700589 35.0568
RightForeArm  6.91882 37.2931 8.12481
RightHand  -0.444123 -1.32991 -12.6096
LeftUpLeg  -18.6278 3.51512 5.03293
LeftLeg  45.1972 3.11441 3.75864
LeftFoot  -2.07718 0.365612 -4.34746
LeftToes  1.2005e-010 6.1915e-012 3.32694e-011
71
root  27.2551 39.7122 30.6558 171.998 -84.5384 -176.886
RightUpLeg  1.78413 -8.735 2.40384
RightLeg  17.5211 -1.27103 2.75619
RightFoot  -12.7504 -0.197071 -9.00666
RightToes  5.82063e-011 0 -3.6325e-017
Spine  3.25232 0.976614 12.5472
Spine1  9.43023 2.83447 -4.56271
HEad  -6.41221 -7.01403 -1.13629
LeftShoulder1  7.97316 -11.418 -46.6075
LeftArm  -6.73601 18.4931 -30.4718
LeftForeArm  24.2369 -22.0643 -3.68182
LeftHand  -0.244104 0.0205437 5.32207
RightShoulder  5.9121 9.43562 39.5756
RightArm  4.59247 1.87241 35.4553
RightForeArm  6.64931 40.0166 8.98465
RightHand  -0.462718 -1.48252 -13.6301
LeftUpLeg  -19.5808 3.72529 5.13511
LeftLeg  34.8792 2.397 2.16721
LeftFoot  -1.6414 0.458939 -5.2922
LeftToes  1.2005e-010 6.1915e-012 3.32694e-011
72
root  25.9224 39.7426 30.645 176.083 -82.1316 179.6
RightUpLeg  3.93878 -8.36459 1.48763
RightLeg  16.3094 0.946643 3.25259
RightFoot  -13.6887 -0.281486 -9.20023
RightToes  5.82063e-011 0 -3.6325e-017
Spine  2.416 1.29968 12.7567
Spine1  9.86364 3.28245 -5.84176
HEad  -6.0381 -6.92362 -1.30289
LeftShoulder1  7.95372 -11.329 -46.7761
LeftArm  -7.28294 19.741 -30.3276
LeftForeArm  24.2166 -18.5101 -4.01878
LeftHand  -0.244104 0.0205437 5.32207
RightShoulder  5.90551 9.53261 39.2035
RightArm  6.19224 4.5786 36.1455
RightForeArm  6.4573 41.1562 9.37602
RightHand  -0.480719 -1.50041 -14.2356
LeftUpLeg  -19.4747 3.27526 5.44904
LeftLeg  22.9428 0.672012 0.659061
LeftFoot  -0.444766 0.489977 -5.11295
LeftToes  1.2005e-010 6.1915e-012 3.32694e-011
73
root  24.5801 39.7276 30.6166 178.132 -79.4907 177.869
RightUpLeg  6.33955 -8.09547 0.481624
RightLeg  15.1278 3.48855 3.48529
RightFoot  -14.6686 -0.370865 -9.34305
RightToes  5.82063e-011 0 -3.6325e-017
Spine  1.93983 1.58176 12.466
Spine1  10.2943 3.6748 -6.74079
HEad  -5.83685 -6.89478 -1.18953
LeftShoulder1  7.91515 -11.2278 -46.8705
LeftArm  -8.77501 21.1794 -30.3388
LeftForeArm  25.5643 -15.0142 -4.59031
LeftHand  -0.244104 0.0205437 5.32207
RightShoulder  5.89606 9.55617 39.0567
RightArm  8.04516 7.13434 36.6871
RightForeArm  6.76089 41.0738 9.33017
RightHand  -0.44856 -1.62617 -13.6984
LeftUpLeg  -18.4645 2.54366 6.00589
LeftLeg  11.1187 -1.52496 -0.0951444
LeftFoot  0.016136 0.487979 -4.90769
LeftToes  1.2005e-010 6.1915e-012 3.32694e-011
74
root  23.186 39.5971 30.5928 178.89 -76.6827 177.135
RightUpLeg  8.75649 -8.01033 -0.722754
RightLeg  14.6987 6.31097 3.53511
RightFoot  -16.2912 -0.489766 -8.80099
RightToes  5.82063e-011 0 -3.6325e-017
Spine  1.76398 1.80177 11.8533
Spine1  10.7757 3.99521 -7.19923
HEad  -5.66368 -6.75017 -0.906565
LeftShoulder1  7.88198 -11.1359 -46.9683
LeftArm  -10.1296 22.7596 -30.4928
LeftForeArm  26.9843 -12.0233 -4.92072
LeftHand  -0.244104 0.0205437 5.32207
RightShoulder  5.95891 9.62659 39.2819
RightArm  10.0097 9.32918 37.0139
RightForeArm  6.95296 39.9361 8.94456
RightHand  -0.426813 -1.61168 -12.9888
LeftUpLeg  -17.3971 2.80549 6.62065
LeftLeg  2.66803 -3.05922 -0.487279
LeftFoot  -0.779104 0.560406 -6.03279
LeftToes  1.2005e-010 6.1915e-012 3.32694e-011
75
root  21.7258 39.4068 30.6079 179.206 -74.0132 176.763
RightUpLeg  10.8396 -7.84642 -2.10278
RightLeg  15.0829 8.95203 3.48591
RightFoot  -17.8903 -0.559181 -7.63964
RightToes  5.82063e-011 0 -3.6325e-017
Spine  1.54934 1.87001 11.3257
Spine1  11.4163 4.21009 -7.62397
HEad  -5.70718 -6.48014 -0.429231
LeftShoulder1  7.88591 -11.0999 -47.11
LeftArm  -10.7766 24.2737 -30.8006
LeftForeArm  27.8025 -9.60643 -5.0054
LeftHand  -0.244104 0.0205437 5.32207
RightShoulder  6.07046 9.7745 39.6008
RightArm  11.77 10.8643 37.4343
RightForeArm  6.50766 37.8009 8.30541
RightHand  -0.462711 -1.29644 -13.0297
LeftUpLeg  -17.1556 3.52615 6.91496
LeftLeg  0.225804 -2.97678 -1.222
LeftFoot  -1.31039 0.674193 -7.55687
LeftToes  1.2005e-010 6.1915e-012 3.32694e-011
76
root  20.2034 39.2276 30.6619 179.671 -71.6149 176.237
RightUpLeg  12.4988 -6.83075 -3.38853
RightLeg  16.0755 10.4025 3.19993
RightFoot  -18.7351 -0.552842 -6.58362
RightToes  5.82063e-011 0 -3.6325e-017
Spine  1.29308 1.8637 10.8458
Spine1  12.0507 4.37136 -8.01962
HEad  -6.08477 -6.26569 0.307719
LeftShoulder1  7.92852 -11.1194 -47.3052
LeftArm  -10.6802 25.4998 -31.2249
LeftForeArm  28.3381 -7.61001 -5.00378
LeftHand  -0.244104 0.0205437 5.32207
RightShoulder  6.15451 9.88693 39.8326
RightArm  13.0693 11.3172 37.8231
RightForeArm  5.47464 35.0448 7.5641
RightHand  -0.498344 -1.07133 -13.3369
LeftUpLeg  -17.4901 3.63533 6.42572
LeftLeg  2.68668 -1.82659 -1.35413
LeftFoot  0.923093 0.847382 -7.95718
LeftToes  1.2005e-010 6.1915e-012 3.32694e-011
